# xmcd
#
# Track frame offsets:
#	182
#	12537
#	23937
#	37137
#	52130
#	71862
#	87462
#	109437
#	125337
#	147387
#	170262
#	186237
#	202887
#
# Disc length: 2883 seconds
#
# Revision: 1
# Processed by: cddbd v1.5.1PL0 Copyright (c) Steve Scherf et al.
# Submitted via: audiograbber 1.82.02
#
DISCID=c80b410d
DTITLE=Rob L G - Inspiration
DYEAR=1900
DGENRE=Country
TTITLE0=Down And Out
TTITLE1=Crossroads Of My Heart
TTITLE2=Spider On The Wall
TTITLE3=Rolling Stone
TTITLE4=Dreamer
TTITLE5=The Boxer
TTITLE6=Popeye
TTITLE7=Welcome To My World
TTITLE8=Gilded Wings
TTITLE9=My Inspiration
TTITLE10=Too Late To Start Over
TTITLE11=Who Dug The Well
TTITLE12=I Believe
EXTD=
EXTT0=
EXTT1=
EXTT2=
EXTT3=
EXTT4=
EXTT5=
EXTT6=
EXTT7=
EXTT8=
EXTT9=
EXTT10=
EXTT11=
EXTT12=
PLAYORDER=
